<svg width="247" height="93" viewBox="0 0 247 93" fill="none" xmlns="http://www.w3.org/2000/svg">
<path d="M26.6561 37.6524C27.0458 37.6524 27.3732 37.7927 27.6382 38.0733L30.4207 41.0429C29.0489 42.7888 27.342 44.1138 25.2999 45.0179C23.2734 45.9221 20.8572 46.3741 18.0513 46.3741C15.5104 46.3741 13.2267 45.9454 11.2002 45.0881C9.17375 44.2151 7.45124 43.007 6.03269 41.4638C4.61415 39.9205 3.52297 38.0889 2.75914 35.9689C1.99531 33.8489 1.6134 31.534 1.6134 29.0243C1.6134 27.3407 1.79266 25.7429 2.15119 24.2309C2.52531 22.7032 3.06311 21.3002 3.76459 20.022C4.46606 18.7438 5.30784 17.5902 6.2899 16.5614C7.28756 15.5326 8.40992 14.6596 9.65699 13.9425C10.9041 13.2099 12.2602 12.6565 13.7255 12.2824C15.2064 11.8927 16.7809 11.6978 18.4488 11.6978C19.6959 11.6978 20.8728 11.8069 21.9796 12.0252C23.1019 12.2434 24.1464 12.5474 25.1128 12.9371C26.0793 13.3268 26.9679 13.8022 27.7785 14.3634C28.6046 14.909 29.3451 15.5092 29.9998 16.1639L27.6382 19.3907C27.4979 19.5933 27.3186 19.7726 27.1004 19.9285C26.8821 20.0844 26.5859 20.1623 26.2118 20.1623C25.8377 20.1623 25.4558 20.0298 25.0661 19.7648C24.692 19.4998 24.2243 19.2036 23.6631 18.8763C23.1175 18.5489 22.4239 18.2527 21.5821 17.9877C20.7559 17.7227 19.7037 17.5902 18.4254 17.5902C17.0069 17.5902 15.7053 17.8474 14.5206 18.3618C13.3358 18.8763 12.3148 19.6245 11.4574 20.6066C10.6157 21.573 9.96096 22.7656 9.49331 24.1841C9.02566 25.6026 8.79183 27.216 8.79183 29.0243C8.79183 30.8481 9.04125 32.4771 9.54008 33.9112C10.0545 35.3298 10.7482 36.5301 11.6211 37.5121C12.5097 38.4942 13.5385 39.2424 14.7076 39.7569C15.8923 40.2557 17.155 40.5051 18.4956 40.5051C19.2906 40.5051 20.0077 40.4661 20.6468 40.3882C21.3015 40.3102 21.9016 40.1777 22.4472 39.9907C23.0084 39.8036 23.5306 39.562 24.0139 39.2658C24.5127 38.9697 25.0115 38.5955 25.5103 38.1435C25.6818 38.0032 25.8611 37.8863 26.0481 37.7927C26.2352 37.6992 26.4379 37.6524 26.6561 37.6524ZM46.0954 35.9221C44.521 36.0001 43.2115 36.1404 42.1671 36.343C41.1227 36.5301 40.2887 36.7795 39.6652 37.0913C39.0572 37.403 38.6208 37.7616 38.3558 38.1669C38.1063 38.5566 37.9816 38.9852 37.9816 39.4529C37.9816 40.3882 38.2389 41.0507 38.7533 41.4404C39.2833 41.8301 40.0159 42.025 40.9512 42.025C42.0268 42.025 42.9543 41.8379 43.7337 41.4638C44.5288 41.0741 45.316 40.4739 46.0954 39.6633V35.9221ZM32.9544 25.2363C34.3729 23.9581 35.9396 23.0072 37.6543 22.3836C39.369 21.7445 41.224 21.425 43.2193 21.425C44.6535 21.425 45.9317 21.6588 47.0541 22.1264C48.192 22.5941 49.1507 23.2488 49.9301 24.0906C50.7251 24.9167 51.3331 25.9066 51.754 27.0601C52.1748 28.2137 52.3853 29.4763 52.3853 30.8481V46H49.4391C48.8311 46 48.3635 45.9143 48.0361 45.7428C47.7244 45.5713 47.4672 45.2128 47.2645 44.6672L46.7501 43.1239C46.1421 43.654 45.5498 44.1216 44.973 44.5269C44.4118 44.9322 43.8273 45.2751 43.2193 45.5557C42.6114 45.8207 41.9567 46.0234 41.2552 46.1637C40.5693 46.304 39.7977 46.3741 38.9403 46.3741C37.8803 46.3741 36.9138 46.2338 36.0409 45.9532C35.1679 45.6726 34.4119 45.2596 33.7728 44.714C33.1493 44.1528 32.666 43.4591 32.3231 42.6329C31.9801 41.8067 31.8087 40.8558 31.8087 39.7802C31.8087 38.8917 32.0347 38.0032 32.4867 37.1146C32.9388 36.2261 33.7104 35.4233 34.8016 34.7062C35.9084 33.9736 37.3737 33.3734 39.1975 32.9058C41.037 32.4225 43.3362 32.1497 46.0954 32.0874V30.8481C46.0954 29.336 45.7758 28.2293 45.1367 27.5278C44.4976 26.8107 43.5779 26.4522 42.3776 26.4522C41.489 26.4522 40.7486 26.5613 40.1562 26.7796C39.5639 26.9822 39.0417 27.2082 38.5896 27.4576C38.1531 27.6915 37.74 27.9175 37.3503 28.1357C36.9606 28.3384 36.5085 28.4397 35.9941 28.4397C35.5421 28.4397 35.1601 28.3306 34.8484 28.1124C34.5522 27.8785 34.3028 27.6057 34.1001 27.294L32.9544 25.2363ZM63.4087 24.6985C63.8919 24.2309 64.3908 23.8022 64.9052 23.4125C65.4352 23.0228 65.9886 22.6876 66.5653 22.407C67.1577 22.1264 67.789 21.9082 68.4593 21.7523C69.1452 21.5964 69.8857 21.5185 70.6807 21.5185C71.9901 21.5185 73.1514 21.7445 74.1647 22.1966C75.1779 22.6486 76.0275 23.28 76.7134 24.0906C77.4148 24.9012 77.937 25.8676 78.28 26.99C78.6385 28.1124 78.8178 29.3438 78.8178 30.6844V46H72.3876V30.6844C72.3876 29.3438 72.0758 28.3072 71.4523 27.5746C70.8287 26.8263 69.909 26.4522 68.6931 26.4522C67.789 26.4522 66.9395 26.6471 66.1444 27.0368C65.3494 27.4265 64.5934 27.9721 63.8763 28.6735V46H57.4228V21.8926H61.3978C62.2084 21.8926 62.7462 22.2667 63.0112 23.015L63.4087 24.6985ZM108.75 46H102.319V26.5223H91.6336V39.1022C91.6336 39.7725 91.7895 40.3025 92.1012 40.6922C92.4286 41.0819 92.8885 41.2767 93.4808 41.2767C93.7926 41.2767 94.0576 41.2456 94.2758 41.1832C94.4941 41.1053 94.6811 41.0273 94.837 40.9494C94.9929 40.8558 95.1332 40.7779 95.2579 40.7155C95.3982 40.6376 95.5385 40.5986 95.6788 40.5986C95.8658 40.5986 96.0217 40.6454 96.1464 40.7389C96.2711 40.8169 96.3958 40.9572 96.5205 41.1598L98.4613 44.2463C97.5728 44.9478 96.5673 45.4778 95.445 45.8363C94.3226 46.1949 93.1613 46.3741 91.961 46.3741C90.8698 46.3741 89.9033 46.2182 89.0615 45.9065C88.2197 45.5791 87.5105 45.1193 86.9337 44.5269C86.3569 43.9345 85.9205 43.2175 85.6243 42.3757C85.3281 41.5339 85.18 40.583 85.18 39.523V26.5223H82.9119C82.569 26.5223 82.2728 26.4132 82.0234 26.195C81.7895 25.9768 81.6726 25.6494 81.6726 25.2129V22.6876L85.5308 21.9861L86.8402 15.743C87.0116 15.0415 87.4871 14.6908 88.2665 14.6908H91.6336V22.0329H108.75V46ZM109.755 14.9948C109.755 15.5248 109.646 16.0314 109.428 16.5146C109.209 16.9823 108.913 17.3954 108.539 17.7539C108.181 18.0968 107.752 18.3774 107.253 18.5957C106.77 18.7983 106.248 18.8996 105.687 18.8996C105.156 18.8996 104.65 18.7983 104.167 18.5957C103.699 18.3774 103.286 18.0968 102.927 17.7539C102.569 17.3954 102.28 16.9823 102.062 16.5146C101.86 16.0314 101.758 15.5248 101.758 14.9948C101.758 14.4492 101.86 13.9425 102.062 13.4749C102.28 12.9917 102.569 12.5708 102.927 12.2122C103.286 11.8537 103.699 11.5731 104.167 11.3705C104.65 11.1522 105.156 11.0431 105.687 11.0431C106.248 11.0431 106.77 11.1522 107.253 11.3705C107.752 11.5731 108.181 11.8537 108.539 12.2122C108.913 12.5708 109.209 12.9917 109.428 13.4749C109.646 13.9425 109.755 14.4492 109.755 14.9948ZM120.267 24.6985C120.75 24.2309 121.249 23.8022 121.763 23.4125C122.293 23.0228 122.846 22.6876 123.423 22.407C124.016 22.1264 124.647 21.9082 125.317 21.7523C126.003 21.5964 126.744 21.5185 127.539 21.5185C128.848 21.5185 130.009 21.7445 131.023 22.1966C132.036 22.6486 132.885 23.28 133.571 24.0906C134.273 24.9012 134.795 25.8676 135.138 26.99C135.496 28.1124 135.676 29.3438 135.676 30.6844V46H129.246V30.6844C129.246 29.3438 128.934 28.3072 128.31 27.5746C127.687 26.8263 126.767 26.4522 125.551 26.4522C124.647 26.4522 123.797 26.6471 123.002 27.0368C122.207 27.4265 121.451 27.9721 120.734 28.6735V46H114.281V21.8926H118.256C119.066 21.8926 119.604 22.2667 119.869 23.015L120.267 24.6985ZM147.268 24.2542C147.72 23.8489 148.188 23.4826 148.671 23.1553C149.17 22.8123 149.692 22.5239 150.238 22.2901C150.799 22.0407 151.391 21.8536 152.015 21.7289C152.654 21.5886 153.34 21.5185 154.072 21.5185C155.382 21.5185 156.543 21.7445 157.556 22.1966C158.57 22.6486 159.419 23.28 160.105 24.0906C160.806 24.9012 161.329 25.8676 161.672 26.99C162.03 28.1124 162.209 29.3438 162.209 30.6844V46H155.779V30.6844C155.779 29.3438 155.467 28.3072 154.844 27.5746C154.22 26.8263 153.301 26.4522 152.085 26.4522C151.181 26.4522 150.331 26.6471 149.536 27.0368C148.741 27.4265 147.985 27.9721 147.268 28.6735V46H140.814V11.1366H147.268V24.2542ZM178.221 21.5185C180.029 21.5185 181.674 21.8069 183.155 22.3836C184.636 22.9604 185.906 23.7866 186.966 24.8622C188.026 25.9222 188.844 27.216 189.421 28.7437C189.998 30.2713 190.286 31.9939 190.286 33.9112C190.286 35.8286 189.998 37.5589 189.421 39.1022C188.844 40.6298 188.026 41.9314 186.966 43.007C185.906 44.0826 184.636 44.9088 183.155 45.4856C181.674 46.0624 180.029 46.3507 178.221 46.3507C176.397 46.3507 174.737 46.0624 173.24 45.4856C171.76 44.9088 170.489 44.0826 169.429 43.007C168.369 41.9314 167.543 40.6298 166.951 39.1022C166.374 37.5589 166.085 35.8286 166.085 33.9112C166.085 31.9939 166.374 30.2713 166.951 28.7437C167.543 27.216 168.369 25.9222 169.429 24.8622C170.489 23.7866 171.76 22.9604 173.24 22.3836C174.737 21.8069 176.397 21.5185 178.221 21.5185ZM178.221 41.5106C180.06 41.5106 181.424 40.8792 182.313 39.6166C183.201 38.3383 183.646 36.4443 183.646 33.9346C183.646 31.4405 183.201 29.5621 182.313 28.2994C181.424 27.0212 180.06 26.3821 178.221 26.3821C176.335 26.3821 174.947 27.0212 174.059 28.2994C173.17 29.5621 172.726 31.4405 172.726 33.9346C172.726 36.4443 173.17 38.3383 174.059 39.6166C174.947 40.8792 176.335 41.5106 178.221 41.5106Z" fill="#2A2521"/>
<path d="M115.031 66.0507C115.031 68.4301 114.627 70.6374 113.819 72.6727C113.026 74.7079 111.896 76.4662 110.43 77.9478C108.978 79.4293 107.227 80.5965 105.177 81.4495C103.127 82.2876 100.852 82.7066 98.3529 82.7066C95.8538 82.7066 93.5791 82.2876 91.5289 81.4495C89.4788 80.5965 87.7204 79.4293 86.2538 77.9478C84.7873 76.4662 83.65 74.7079 82.8419 72.6727C82.0487 70.6374 81.6522 68.4301 81.6522 66.0507C81.6522 63.6713 82.0487 61.4715 82.8419 59.4512C83.65 57.416 84.7873 55.6577 86.2538 54.1761C87.7204 52.6946 89.4788 51.5348 91.5289 50.6968C93.5791 49.8438 95.8538 49.4173 98.3529 49.4173C100.852 49.4173 103.127 49.8438 105.177 50.6968C107.227 51.5348 108.978 52.7021 110.43 54.1986C111.896 55.6801 113.026 57.4385 113.819 59.4737C114.627 61.4939 115.031 63.6863 115.031 66.0507ZM108.14 66.0507C108.14 64.3447 107.915 62.8183 107.466 61.4715C107.018 60.1097 106.367 58.9574 105.514 58.0146C104.676 57.0569 103.65 56.3311 102.438 55.8372C101.241 55.3284 99.8793 55.074 98.3529 55.074C96.8265 55.074 95.4572 55.3284 94.2451 55.8372C93.0329 56.3311 92.0003 57.0569 91.1473 58.0146C90.3093 58.9574 89.6658 60.1097 89.2169 61.4715C88.7679 62.8183 88.5435 64.3447 88.5435 66.0507C88.5435 67.7717 88.7679 69.3131 89.2169 70.6748C89.6658 72.0217 90.3093 73.1665 91.1473 74.1093C92.0003 75.0521 93.0329 75.7779 94.2451 76.2867C95.4572 76.7805 96.8265 77.0274 98.3529 77.0274C99.8793 77.0274 101.241 76.7805 102.438 76.2867C103.65 75.7779 104.676 75.0521 105.514 74.1093C106.367 73.1665 107.018 72.0217 107.466 70.6748C107.915 69.3131 108.14 67.7717 108.14 66.0507ZM124.559 63.0203C125.293 61.7034 126.138 60.6634 127.096 59.9002C128.054 59.137 129.176 58.7554 130.463 58.7554C131.511 58.7554 132.363 59.0023 133.022 59.4961L132.618 64.0754C132.543 64.3747 132.423 64.5842 132.259 64.7039C132.109 64.8086 131.9 64.861 131.63 64.861C131.391 64.861 131.047 64.8311 130.598 64.7712C130.149 64.6964 129.73 64.659 129.341 64.659C128.772 64.659 128.263 64.7413 127.814 64.9059C127.38 65.0705 126.991 65.3025 126.647 65.6018C126.303 65.9011 125.988 66.2677 125.704 66.7017C125.435 67.1357 125.18 67.6295 124.941 68.1832V82.3474H118.746V59.2043H122.404C123.033 59.2043 123.467 59.3166 123.706 59.541C123.946 59.7655 124.118 60.1546 124.223 60.7083L124.559 63.0203ZM142.044 59.2043V82.3474H135.848V59.2043H142.044ZM142.784 52.6273C142.784 53.151 142.68 53.6374 142.47 54.0863C142.261 54.5353 141.976 54.9319 141.617 55.276C141.273 55.6202 140.861 55.8896 140.383 56.0841C139.919 56.2787 139.417 56.376 138.879 56.376C138.37 56.376 137.883 56.2787 137.42 56.0841C136.971 55.8896 136.574 55.6202 136.23 55.276C135.886 54.9319 135.609 54.5353 135.399 54.0863C135.205 53.6374 135.107 53.151 135.107 52.6273C135.107 52.1035 135.205 51.6171 135.399 51.1682C135.609 50.7043 135.886 50.3002 136.23 49.9561C136.574 49.6119 136.971 49.3425 137.42 49.148C137.883 48.9534 138.37 48.8561 138.879 48.8561C139.417 48.8561 139.919 48.9534 140.383 49.148C140.861 49.3425 141.273 49.6119 141.617 49.9561C141.976 50.3002 142.261 50.7043 142.47 51.1682C142.68 51.6171 142.784 52.1035 142.784 52.6273ZM162.011 68.0485C162.011 67.405 161.921 66.7915 161.742 66.2079C161.577 65.6242 161.308 65.1079 160.934 64.659C160.56 64.21 160.088 63.8584 159.519 63.604C158.951 63.3346 158.27 63.1999 157.477 63.1999C155.995 63.1999 154.836 63.6189 153.997 64.457C153.159 65.295 152.613 66.4922 152.359 68.0485H162.011ZM152.269 71.7299C152.464 73.8998 153.077 75.486 154.11 76.4887C155.157 77.4913 156.519 77.9926 158.195 77.9926C159.048 77.9926 159.781 77.8954 160.395 77.7008C161.023 77.4913 161.57 77.2669 162.034 77.0274C162.512 76.773 162.939 76.5485 163.313 76.354C163.702 76.1445 164.084 76.0397 164.458 76.0397C164.937 76.0397 165.311 76.2193 165.58 76.5785L167.376 78.8232C166.718 79.5864 165.992 80.2224 165.199 80.7312C164.406 81.2251 163.582 81.6216 162.729 81.9209C161.876 82.2052 161.016 82.3998 160.148 82.5045C159.28 82.6243 158.442 82.6841 157.634 82.6841C156.018 82.6841 154.506 82.4222 153.1 81.8985C151.708 81.3597 150.488 80.5741 149.441 79.5415C148.408 78.494 147.593 77.1995 146.994 75.6581C146.395 74.1168 146.096 72.3285 146.096 70.2932C146.096 68.7219 146.35 67.2404 146.859 65.8487C147.383 64.457 148.131 63.2448 149.104 62.2122C150.077 61.1797 151.259 60.3641 152.651 59.7655C154.042 59.1519 155.614 58.8452 157.365 58.8452C158.846 58.8452 160.208 59.0846 161.45 59.5635C162.707 60.0274 163.784 60.7083 164.682 61.6062C165.595 62.5041 166.299 63.6115 166.792 64.9284C167.301 66.2303 167.556 67.7193 167.556 69.3954C167.556 69.8593 167.533 70.2409 167.488 70.5402C167.443 70.8395 167.369 71.0789 167.264 71.2585C167.159 71.4381 167.017 71.5653 166.837 71.6401C166.658 71.6999 166.426 71.7299 166.141 71.7299H152.269ZM177.147 61.898C177.61 61.449 178.089 61.0375 178.583 60.6634C179.092 60.2893 179.623 59.9675 180.177 59.6982C180.746 59.4288 181.352 59.2193 181.995 59.0696C182.654 58.92 183.364 58.8452 184.128 58.8452C185.385 58.8452 186.5 59.0621 187.472 59.4961C188.445 59.9301 189.261 60.5362 189.919 61.3144C190.592 62.0925 191.094 63.0203 191.423 64.0978C191.767 65.1753 191.939 66.3575 191.939 67.6445V82.3474H185.766V67.6445C185.766 66.3575 185.467 65.3623 184.868 64.659C184.27 63.9407 183.387 63.5815 182.22 63.5815C181.352 63.5815 180.536 63.7686 179.773 64.1427C179.01 64.5168 178.284 65.0406 177.595 65.714V82.3474H171.4V59.2043H175.216C175.994 59.2043 176.511 59.5635 176.765 60.2818L177.147 61.898ZM204.557 82.7066C203.509 82.7066 202.581 82.5569 201.773 82.2576C200.965 81.9434 200.284 81.5019 199.731 80.9332C199.177 80.3646 198.758 79.6762 198.474 78.8681C198.189 78.06 198.047 77.1471 198.047 76.1295V63.6489H195.87C195.54 63.6489 195.256 63.5441 195.017 63.3346C194.792 63.1251 194.68 62.8108 194.68 62.3918V59.9675L198.384 59.2941L199.641 53.3007C199.805 52.6273 200.262 52.2906 201.01 52.2906H204.242V59.339H210.213V63.6489H204.242V75.7255C204.242 76.369 204.392 76.8778 204.691 77.2519C205.006 77.626 205.447 77.8131 206.016 77.8131C206.315 77.8131 206.569 77.7831 206.779 77.7233C206.989 77.6485 207.168 77.5736 207.318 77.4988C207.467 77.409 207.602 77.3342 207.722 77.2743C207.856 77.1995 207.991 77.1621 208.126 77.1621C208.305 77.1621 208.455 77.207 208.575 77.2968C208.694 77.3716 208.814 77.5063 208.934 77.7008L210.797 80.6639C209.944 81.3373 208.979 81.8461 207.901 82.1903C206.824 82.5345 205.709 82.7066 204.557 82.7066ZM225.632 72.6727C224.12 72.7475 222.863 72.8822 221.86 73.0767C220.858 73.2563 220.057 73.4957 219.459 73.795C218.875 74.0943 218.456 74.4385 218.201 74.8276C217.962 75.2017 217.842 75.6132 217.842 76.0622C217.842 76.9601 218.089 77.5961 218.583 77.9702C219.092 78.3443 219.795 78.5314 220.693 78.5314C221.726 78.5314 222.616 78.3518 223.364 77.9926C224.128 77.6185 224.883 77.0424 225.632 76.2642V72.6727ZM213.016 62.4143C214.378 61.1872 215.882 60.2743 217.528 59.6757C219.174 59.0621 220.955 58.7554 222.871 58.7554C224.247 58.7554 225.474 58.9798 226.552 59.4288C227.644 59.8777 228.565 60.5063 229.313 61.3144C230.076 62.1075 230.66 63.0578 231.064 64.1652C231.468 65.2725 231.67 66.4847 231.67 67.8016V82.3474H228.841C228.258 82.3474 227.809 82.2651 227.495 82.1005C227.195 81.9359 226.948 81.5917 226.754 81.0679L226.26 79.5864C225.676 80.0952 225.108 80.5442 224.554 80.9332C224.015 81.3223 223.454 81.6515 222.871 81.9209C222.287 82.1753 221.658 82.3699 220.985 82.5045C220.326 82.6392 219.586 82.7066 218.763 82.7066C217.745 82.7066 216.817 82.5719 215.979 82.3025C215.141 82.0332 214.415 81.6366 213.802 81.1128C213.203 80.5741 212.739 79.9081 212.41 79.115C212.081 78.3219 211.916 77.409 211.916 76.3764C211.916 75.5235 212.133 74.6705 212.567 73.8175C213.001 72.9645 213.742 72.1938 214.79 71.5054C215.852 70.8021 217.259 70.2259 219.01 69.777C220.775 69.3131 222.983 69.0512 225.632 68.9913V67.8016C225.632 66.35 225.325 65.2875 224.711 64.6141C224.098 63.9257 223.215 63.5815 222.062 63.5815C221.209 63.5815 220.499 63.6863 219.93 63.8958C219.361 64.0903 218.86 64.3073 218.426 64.5468C218.007 64.7712 217.61 64.9882 217.236 65.1977C216.862 65.3923 216.428 65.4895 215.934 65.4895C215.5 65.4895 215.134 65.3848 214.834 65.1753C214.55 64.9508 214.311 64.6889 214.116 64.3896L213.016 62.4143ZM242.746 48.8786V82.3474H236.551V48.8786H242.746Z" fill="#2A2521"/>
</svg>
