<svg width="13" height="16" viewBox="0 0 13 16" fill="none" xmlns="http://www.w3.org/2000/svg">
<path d="M1.5769 15.5C1.1644 15.5 0.811404 15.3533 0.517904 15.0597C0.223904 14.7657 0.0769043 14.4125 0.0769043 14V5C0.0769043 4.5875 0.223904 4.2345 0.517904 3.941C0.811404 3.647 1.1644 3.5 1.5769 3.5H3.0769C3.0769 2.675 3.37065 1.96875 3.95815 1.38125C4.54565 0.79375 5.2519 0.5 6.0769 0.5C6.9019 0.5 7.60815 0.79375 8.19565 1.38125C8.78315 1.96875 9.0769 2.675 9.0769 3.5H10.5769C10.9894 3.5 11.3427 3.647 11.6367 3.941C11.9302 4.2345 12.0769 4.5875 12.0769 5V14C12.0769 14.4125 11.9302 14.7657 11.6367 15.0597C11.3427 15.3533 10.9894 15.5 10.5769 15.5H1.5769ZM3.8269 7.25C4.0394 7.25 4.21765 7.178 4.36165 7.034C4.50515 6.8905 4.5769 6.7125 4.5769 6.5V5H3.0769V6.5C3.0769 6.7125 3.1489 6.8905 3.2929 7.034C3.4364 7.178 3.6144 7.25 3.8269 7.25ZM4.5769 3.5H7.5769C7.5769 3.0875 7.43015 2.7345 7.13665 2.441C6.84265 2.147 6.4894 2 6.0769 2C5.6644 2 5.3114 2.147 5.0179 2.441C4.7239 2.7345 4.5769 3.0875 4.5769 3.5ZM8.3269 7.25C8.5394 7.25 8.71765 7.178 8.86165 7.034C9.00515 6.8905 9.0769 6.7125 9.0769 6.5V5H7.5769V6.5C7.5769 6.7125 7.6489 6.8905 7.7929 7.034C7.9364 7.178 8.1144 7.25 8.3269 7.25Z" fill="white"/>
</svg>
