<svg width="23" height="23" viewBox="0 0 23 23" fill="none" xmlns="http://www.w3.org/2000/svg">
<path d="M22.7594 6.655C22.7468 5.70828 22.5696 4.77097 22.2357 3.885C21.9461 3.13769 21.5038 2.459 20.9371 1.89229C20.3704 1.32558 19.6917 0.883313 18.9444 0.59375C18.0698 0.265446 17.1459 0.0879266 16.2119 0.0687501C15.0094 0.0150001 14.6282 0 11.5757 0C8.52315 0 8.1319 8.3819e-08 6.93815 0.0687501C6.0046 0.0880676 5.08109 0.265585 4.2069 0.59375C3.45947 0.883112 2.78068 1.32531 2.21394 1.89204C1.64721 2.45878 1.20501 3.13757 0.915649 3.885C0.586688 4.75892 0.409553 5.68264 0.391899 6.61625C0.338149 7.82 0.321899 8.20125 0.321899 11.2537C0.321899 14.3063 0.321899 14.6962 0.391899 15.8913C0.410649 16.8263 0.586899 17.7488 0.915649 18.625C1.2055 19.3722 1.64802 20.0507 2.21494 20.6172C2.78187 21.1837 3.46073 21.6257 4.20815 21.915C5.07994 22.2565 6.00362 22.4467 6.9394 22.4775C8.14315 22.5312 8.5244 22.5475 11.5769 22.5475C14.6294 22.5475 15.0207 22.5475 16.2144 22.4775C17.1483 22.4591 18.0724 22.282 18.9469 21.9538C19.694 21.6639 20.3725 21.2215 20.9392 20.6548C21.5059 20.0881 21.9483 19.4096 22.2382 18.6625C22.5669 17.7875 22.7432 16.865 22.7619 15.9288C22.8157 14.7262 22.8319 14.345 22.8319 11.2913C22.8294 8.23875 22.8294 7.85125 22.7594 6.655ZM11.5682 17.0262C8.37565 17.0262 5.7894 14.44 5.7894 11.2475C5.7894 8.055 8.37565 5.46875 11.5682 5.46875C13.1008 5.46875 14.5706 6.07758 15.6543 7.16131C16.7381 8.24503 17.3469 9.71488 17.3469 11.2475C17.3469 12.7801 16.7381 14.25 15.6543 15.3337C14.5706 16.4174 13.1008 17.0262 11.5682 17.0262ZM17.5769 6.6025C17.3999 6.60266 17.2246 6.56792 17.061 6.50026C16.8975 6.4326 16.7489 6.33335 16.6237 6.20819C16.4986 6.08303 16.3993 5.93442 16.3316 5.77086C16.264 5.6073 16.2292 5.432 16.2294 5.255C16.2294 5.07813 16.2642 4.90298 16.3319 4.73957C16.3996 4.57616 16.4988 4.42768 16.6239 4.30262C16.749 4.17755 16.8974 4.07834 17.0609 4.01065C17.2243 3.94296 17.3994 3.90813 17.5763 3.90813C17.7532 3.90813 17.9283 3.94296 18.0917 4.01065C18.2551 4.07834 18.4036 4.17755 18.5287 4.30262C18.6537 4.42768 18.7529 4.57616 18.8206 4.73957C18.8883 4.90298 18.9232 5.07813 18.9232 5.255C18.9232 6 18.3207 6.6025 17.5769 6.6025Z" fill="#FF8F1E"/>
<path d="M11.5693 15.0693C13.6777 15.0693 15.3868 13.358 15.3868 11.2471C15.3868 9.13609 13.6777 7.4248 11.5693 7.4248C9.46089 7.4248 7.75171 9.13609 7.75171 11.2471C7.75171 13.358 9.46089 15.0693 11.5693 15.0693Z" fill="#FF8F1E"/>
</svg>
