<svg width="25" height="25" viewBox="0 0 25 25" fill="none" xmlns="http://www.w3.org/2000/svg">
<path d="M12.3219 0.273804C5.6944 0.273804 0.321899 5.6463 0.321899 12.2738C0.321899 18.9013 5.6944 24.2738 12.3219 24.2738C18.9494 24.2738 24.3219 18.9013 24.3219 12.2738C24.3219 5.6463 18.9494 0.273804 12.3219 0.273804ZM9.3844 17.2476H6.9544V9.42755H9.3844V17.2476ZM8.1544 8.46755C7.3869 8.46755 6.89065 7.9238 6.89065 7.2513C6.89065 6.56505 7.4019 6.03755 8.18565 6.03755C8.9694 6.03755 9.4494 6.56505 9.4644 7.2513C9.4644 7.9238 8.9694 8.46755 8.1544 8.46755ZM18.2594 17.2476H15.8294V12.9138C15.8294 11.9051 15.4769 11.2201 14.5981 11.2201C13.9269 11.2201 13.5281 11.6838 13.3519 12.1301C13.2869 12.2888 13.2706 12.5138 13.2706 12.7376V17.2463H10.8394V11.9213C10.8394 10.9451 10.8081 10.1288 10.7756 9.4263H12.8869L12.9981 10.5126H13.0469C13.3669 10.0026 14.1506 9.25005 15.4619 9.25005C17.0606 9.25005 18.2594 10.3213 18.2594 12.6238V17.2476Z" fill="#FF8F1E"/>
</svg>
