<svg width="25" height="25" viewBox="0 0 25 25" fill="none" xmlns="http://www.w3.org/2000/svg">
<path d="M12.3219 0.273804C5.6944 0.273804 0.321899 5.6463 0.321899 12.2738C0.321899 18.9013 5.6944 24.2738 12.3219 24.2738C18.9494 24.2738 24.3219 18.9013 24.3219 12.2738C24.3219 5.6463 18.9494 0.273804 12.3219 0.273804ZM17.2031 10.1038C17.2081 10.2063 17.2094 10.3088 17.2094 10.4088C17.2094 13.5338 14.8331 17.1351 10.4856 17.1351C9.20102 17.1372 7.94311 16.7682 6.86315 16.0726C7.0469 16.0951 7.23565 16.1038 7.4269 16.1038C8.5344 16.1038 9.55315 15.7276 10.3619 15.0926C9.86904 15.0829 9.39149 14.9197 8.99579 14.6257C8.60009 14.3317 8.30596 13.9216 8.1544 13.4526C8.50834 13.5199 8.87296 13.5057 9.22065 13.4113C8.68571 13.3031 8.20465 13.0133 7.85903 12.5909C7.51342 12.1685 7.32453 11.6396 7.3244 11.0938V11.0651C7.64315 11.2413 8.00815 11.3488 8.39565 11.3613C7.89415 11.0275 7.53913 10.5146 7.4032 9.92772C7.26728 9.3408 7.36071 8.72412 7.6644 8.2038C8.25809 8.9338 8.99847 9.53099 9.83761 9.95669C10.6767 10.3824 11.5959 10.6271 12.5356 10.6751C12.4162 10.1679 12.4676 9.63556 12.6819 9.16068C12.8962 8.68581 13.2614 8.29504 13.7207 8.04913C14.18 7.80323 14.7077 7.71596 15.2218 7.80089C15.7358 7.88583 16.2074 8.13821 16.5631 8.5188C17.0921 8.41415 17.5994 8.22012 18.0631 7.94505C17.8868 8.49272 17.5177 8.95777 17.0244 9.2538C17.493 9.19737 17.9505 9.0714 18.3819 8.88005C18.065 9.35492 17.6658 9.76935 17.2031 10.1038Z" fill="#FF8F1E"/>
</svg>
