<svg width="25" height="25" viewBox="0 0 25 25" fill="none" xmlns="http://www.w3.org/2000/svg">
<path d="M14.3256 12.0651L11.5181 10.7551C11.2731 10.6413 11.0719 10.7688 11.0719 11.0401V13.5076C11.0719 13.7788 11.2731 13.9063 11.5181 13.7926L14.3244 12.4826C14.5706 12.3676 14.5706 12.1801 14.3256 12.0651ZM12.3219 0.273804C5.6944 0.273804 0.321899 5.6463 0.321899 12.2738C0.321899 18.9013 5.6944 24.2738 12.3219 24.2738C18.9494 24.2738 24.3219 18.9013 24.3219 12.2738C24.3219 5.6463 18.9494 0.273804 12.3219 0.273804ZM12.3219 17.1488C6.1794 17.1488 6.0719 16.5951 6.0719 12.2738C6.0719 7.95255 6.1794 7.3988 12.3219 7.3988C18.4644 7.3988 18.5719 7.95255 18.5719 12.2738C18.5719 16.5951 18.4644 17.1488 12.3219 17.1488Z" fill="#FF8F1E"/>
</svg>
